<svg width="134" height="28" viewBox="0 0 134 28" fill="none" xmlns="http://www.w3.org/2000/svg">
<g clip-path="url(#clip0_4_1472)">
<path d="M9.84131 5.03047V19.1871C9.84131 19.2274 9.84131 19.2678 9.84131 19.3081C9.77854 22.3098 7.31711 24.7309 4.29973 24.7309H0.728638L1.72621 23.7311H4.29749C6.80375 23.7311 8.84149 21.6933 8.84149 19.1893V6.03029L9.84131 5.03047Z" fill="white"/>
<path d="M7.2811 10.8814V19.6713C7.2811 21.0029 6.1961 22.0879 4.8645 22.0879H1.29565L2.29547 21.0881H4.8645C5.64687 21.0881 6.28128 20.4514 6.28128 19.6713V11.888L7.2811 10.8814Z" fill="white"/>
<path d="M13.7306 5.03047V19.1871C13.7306 19.2274 13.7306 19.2678 13.7306 19.3081C13.7934 22.3098 16.2548 24.7309 19.2722 24.7309H22.8411L21.8435 23.7333H19.2722C16.766 23.7333 14.7282 21.6956 14.7282 19.1915V6.03029L13.7284 5.03047H13.7306Z" fill="white"/>
<path d="M16.0801 10.8814V19.6713C16.0801 21.0029 17.1651 22.0879 18.4967 22.0879H22.0655L21.0657 21.0881H18.4967C17.7143 21.0881 17.0799 20.4514 17.0799 19.6713V11.888L16.0801 10.8814Z" fill="white"/>
<path d="M23.4755 27.7236H19.9067C17.5685 27.7236 15.3694 26.7709 13.7665 25.159C13.6925 25.0851 13.6208 25.0111 13.5513 24.9371C13.5177 24.899 13.4818 24.8609 13.446 24.8228C13.3182 24.6771 13.1926 24.5291 13.0716 24.3744C13.0312 24.3229 12.9909 24.2713 12.9528 24.2198C12.9214 24.1772 12.89 24.1368 12.8609 24.0942C12.769 23.9664 12.6815 23.8364 12.5963 23.7042C12.5403 23.6145 12.4843 23.5271 12.4304 23.4352C12.3901 23.3679 12.352 23.2984 12.3139 23.2289C12.3542 23.2984 12.3923 23.3657 12.4304 23.4329C12.3542 23.3051 12.2825 23.1729 12.213 23.0384C12.2085 23.0316 12.2063 23.0249 12.2018 23.0182C12.2018 23.0182 12.1906 22.998 12.1861 22.9868C12.1547 22.9263 12.1233 22.8657 12.0942 22.8052C12.0606 22.7335 12.0269 22.6595 11.9933 22.5878L11.7355 22.0161L11.4777 22.5878C11.3454 22.8814 11.1997 23.1639 11.0383 23.4352C10.9845 23.5271 10.9285 23.6145 10.8724 23.7042C10.7873 23.8364 10.6998 23.9664 10.6079 24.0942C10.5765 24.1368 10.5451 24.1772 10.516 24.2198C10.4779 24.2713 10.4375 24.3251 10.3972 24.3744C10.2761 24.5291 10.1506 24.6771 10.0228 24.8228C9.98919 24.8609 9.95333 24.899 9.91746 24.9371C9.84572 25.0111 9.77399 25.0873 9.70225 25.159C8.10165 26.7686 5.9025 27.7236 3.56212 27.7236H0L0.997574 26.726H0.999816L3.56885 26.7238C6.5683 26.7238 9.1732 24.9932 10.4331 22.4757C10.4532 22.4309 10.4757 22.3883 10.4958 22.3434C10.5519 22.2269 10.6057 22.1058 10.655 21.9847C10.6662 21.9578 10.6752 21.9332 10.6864 21.9063C10.7178 21.8301 10.7491 21.7516 10.776 21.6731C10.8097 21.5812 10.8411 21.4893 10.8702 21.3952C10.8881 21.3414 10.9038 21.2876 10.9195 21.2338C10.9666 21.0724 11.0092 20.9087 11.0473 20.7428C11.072 20.633 11.0944 20.5231 11.1145 20.4088C11.193 19.9694 11.2334 19.5166 11.2334 19.0525V0.50215L11.2535 0.481974L11.258 0.475249L11.731 0L12.2063 0.475249L12.2309 0.517842V19.0525C12.2309 19.5143 12.2735 19.9672 12.3497 20.4088C12.3699 20.5209 12.3923 20.6307 12.417 20.7428C12.4349 20.8258 12.4551 20.9087 12.4775 20.9894C12.4977 21.0724 12.5201 21.1531 12.5448 21.2315C12.5605 21.2853 12.5762 21.3391 12.5941 21.3929C12.6143 21.4602 12.6367 21.5252 12.6613 21.5924C12.695 21.6911 12.7331 21.7897 12.7712 21.8861C12.8093 21.9825 12.8497 22.0789 12.8922 22.173C12.9371 22.2739 12.9864 22.3726 13.0335 22.4734C13.1321 22.6707 13.2397 22.8635 13.354 23.0496C13.4684 23.2379 13.5917 23.4195 13.7217 23.5943C13.7867 23.684 13.8517 23.7692 13.9212 23.8544C13.9548 23.8969 13.9907 23.9395 14.0266 23.9821C14.114 24.0875 14.2037 24.1884 14.2978 24.2893C14.3427 24.3386 14.392 24.3879 14.439 24.435C14.5265 24.5224 14.6161 24.6098 14.7058 24.6928C14.7977 24.778 14.8896 24.8587 14.9838 24.9371C16.3131 26.0513 18.0281 26.7215 19.8932 26.7215H22.4622L23.4598 27.7191H23.4621L23.4755 27.7236Z" fill="white"/>
<path d="M80.5749 26.3763L79.3061 24.3139C79.611 24.2018 79.8688 24.0382 80.0683 23.8207C80.2521 23.619 80.3844 23.3926 80.4628 23.1482C80.5144 22.9801 80.5413 22.812 80.5413 22.6438C80.5413 22.5586 80.5346 22.4712 80.5189 22.3883C80.4673 22.0632 80.3149 21.7718 80.0616 21.5252C79.8486 21.3234 79.6244 21.1688 79.3958 21.0656C79.1716 20.9648 78.9362 20.8975 78.6964 20.8639C78.4699 20.8325 78.2346 20.819 77.9947 20.819L77.58 20.8258C77.4656 20.828 77.3289 20.8303 77.172 20.8303H76.8043V26.7395H77.5105V24.4708C77.5508 24.4708 77.5889 24.4708 77.6248 24.4708L78.0216 24.4753C78.2009 24.4753 78.3825 24.4686 78.5596 24.4551L79.9585 26.7395H80.8058L80.5682 26.3741L80.5749 26.3763ZM78.7614 23.7221L78.7345 23.7266C78.5013 23.7535 78.2592 23.7669 78.0126 23.7669L77.6405 23.7624C77.5979 23.7624 77.5553 23.7624 77.515 23.7624V21.5386L77.9969 21.5319C78.1964 21.5319 78.396 21.5454 78.5865 21.57C78.7636 21.5924 78.9385 21.6418 79.1043 21.7157C79.2658 21.7875 79.4272 21.8951 79.5751 22.0363C79.7141 22.1753 79.797 22.33 79.8284 22.5048C79.8374 22.5519 79.8396 22.6012 79.8396 22.6483C79.8396 22.7447 79.8262 22.8411 79.7948 22.933C79.7477 23.081 79.6648 23.2177 79.5549 23.341C79.3801 23.5293 79.1313 23.6548 78.8196 23.7176L78.786 23.7221C78.786 23.7221 78.7703 23.7243 78.7636 23.7266L78.7614 23.7221Z" fill="white"/>
<path d="M88.3986 21.5431V23.2984H91.2389V24.0046H88.3986V26.0311H91.2232V26.7417L87.9234 26.7372L87.6947 26.7305V20.8459L87.9234 20.837C87.9525 20.837 88.0422 20.8347 91.0259 20.8347H91.2613V21.5454H88.3986V21.5431Z" fill="white"/>
<path d="M100.889 20.8325H100.369L99.031 23.8566L98.4908 25.0582C98.3899 25.2823 98.1926 25.7329 97.899 26.4077L97.7555 26.7372H98.5177L99.5489 24.4238H101.703L102.721 26.735L103.492 26.744L100.887 20.8325H100.889ZM99.865 23.7154L100.629 21.9937L101.389 23.7154H99.865Z" fill="white"/>
<path d="M113.681 26.0266V26.7372H110.058V20.8325H110.764V26.0266H113.681Z" fill="white"/>
<path d="M122.612 20.8325V21.5431H121.155V26.7417H120.449V21.5431H118.994V20.8325H122.612Z" fill="white"/>
<path d="M133.449 20.8415L131.613 23.8588V26.7395H130.902V23.8588C130.716 23.554 130.572 23.3141 130.471 23.1482C130.364 22.9711 130.281 22.8344 130.223 22.738C130.164 22.6416 130.106 22.5474 130.052 22.4577C129.998 22.3703 129.916 22.2381 129.812 22.0654C129.712 21.8973 129.557 21.6462 129.353 21.3167L129.041 20.8415L129.886 20.8302L131.261 23.081L132.63 20.8302L133.451 20.8415H133.449Z" fill="white"/>
<path d="M74.6208 23.2312H27.9052" stroke="white" stroke-width="0.224174" stroke-miterlimit="10"/>
<path d="M49.6344 0.688217H44.6802V13.4818H49.6344C53.7615 13.4818 55.8261 10.711 55.8261 7.0839C55.8261 3.45677 53.7615 0.688217 49.6344 0.688217ZM49.4282 11.9911H46.3323V2.18122H49.4282C52.3178 2.18122 54.1762 4.10015 54.1762 7.0839C54.1762 10.0677 52.3178 11.9911 49.4282 11.9911Z" fill="white"/>
<path d="M75.8022 6.04149V7.10408C75.8022 10.7155 72.7467 13.6903 69.0366 13.6903C65.3266 13.6903 62.2733 10.7155 62.2733 7.10408C62.2733 3.49264 65.3288 0.520088 69.0366 0.520088C71.0004 0.520088 72.2715 0.901184 73.5807 2.17673L72.4732 3.22363C71.3815 2.37401 70.5633 2.0086 69.0366 2.0086C66.2008 2.0086 64.0196 4.34674 64.0196 7.10632C64.0196 9.8659 66.2008 12.204 69.0366 12.204C71.655 12.204 73.8362 10.0789 74.0559 7.53001H68.7318L69.4245 6.78127L70.1216 6.04374H75.8022V6.04149Z" fill="white"/>
<path d="M86.1209 13.4818V13.4841H77.8668V2.23951L78.3219 1.78443L79.528 0.578377V2.309H79.5167V12.0382H84.675L85.8205 13.1814V13.1837L86.1209 13.4818Z" fill="white"/>
<path d="M92.5996 0.517853C89.0173 0.517853 86.0649 3.48143 86.0649 7.08167C86.0649 10.6819 89.0151 13.6455 92.5996 13.6455C96.1842 13.6455 99.132 10.6819 99.132 7.08167C99.132 3.48143 96.1819 0.517853 92.5996 0.517853ZM92.5996 12.1637C89.8602 12.1637 87.753 9.83452 87.753 7.08167C87.753 4.32881 89.8602 1.99964 92.5996 1.99964C95.339 1.99964 97.4463 4.32881 97.4463 7.08167C97.4463 9.83452 95.339 12.1637 92.5996 12.1637Z" fill="white"/>
<path d="M109.648 6.59969C110.267 6.16927 110.886 5.09324 110.886 4.0172C110.886 1.86738 109.648 0.576134 107.377 0.576134H101.188V13.4818H107.792C109.857 13.4818 111.3 11.9776 111.3 9.82555C111.3 8.53431 110.475 7.02786 109.648 6.59969ZM102.838 2.08258H107.171C108.615 2.08258 109.236 2.94117 109.236 4.0172C109.236 5.09324 108.617 5.95631 107.171 5.95631H102.838V2.08258ZM107.377 11.9776H102.838V7.45827H107.377C108.823 7.45827 109.648 8.53431 109.648 9.82555C109.648 11.1168 108.823 11.9776 107.377 11.9776Z" fill="white"/>
<path d="M118.108 0.688217L111.917 13.4818H113.775L118.108 4.1943L122.442 13.4818H124.298L118.108 0.688217Z" fill="white"/>
<path d="M29.573 0.688217V13.4818H27.9231V2.33814L29.573 0.688217Z" fill="white"/>
<path d="M42.4923 0.524574V13.8943L33.4132 4.81526V13.4818H31.7633V0.688221L40.8424 9.76727V2.17674L42.082 0.937054L42.4923 0.524574Z" fill="white"/>
<path d="M134 13.4818V13.4841H125.746V2.23951L126.201 1.78443L127.407 0.578377V2.309H127.396V12.0382H132.554L134 13.4818Z" fill="white"/>
</g>
<defs>
<clipPath id="clip0_4_1472">
<rect width="134" height="27.7236" fill="white"/>
</clipPath>
</defs>
</svg>
