<svg width="40" height="40" viewBox="0 0 40 40" fill="none" xmlns="http://www.w3.org/2000/svg">
<g clip-path="url(#clip0_4_1469)">
<path d="M17.2639 7.25804V27.6834C17.2639 27.7416 17.2639 27.7998 17.2639 27.858C17.1733 32.1889 13.6219 35.6821 9.26839 35.6821H4.11597L5.55528 34.2395H9.26515C12.8812 34.2395 15.8213 31.2994 15.8213 27.6866V8.70059L17.2639 7.25804Z" fill="black"/>
<path d="M13.57 15.6999V28.382C13.57 30.3033 12.0045 31.8687 10.0833 31.8687H4.93408L6.37663 30.4262H10.0833C11.2121 30.4262 12.1274 29.5076 12.1274 28.382V17.1521L13.57 15.6999Z" fill="black"/>
<path d="M22.8753 7.25804V27.6834C22.8753 27.7416 22.8753 27.7998 22.8753 27.858C22.9659 32.1889 26.5173 35.6821 30.8708 35.6821H36.02L34.5806 34.2428H30.8708C27.2547 34.2428 24.3146 31.3027 24.3146 27.6898V8.70059L22.8721 7.25804H22.8753Z" fill="black"/>
<path d="M26.2651 15.6999V28.382C26.2651 30.3033 27.8306 31.8687 29.7518 31.8687H34.901L33.4585 30.4262H29.7518C28.623 30.4262 27.7077 29.5076 27.7077 28.382V17.1521L26.2651 15.6999Z" fill="black"/>
<path d="M36.9355 40H31.7863C28.4128 40 25.2398 38.6254 22.9272 36.2998C22.8205 36.1931 22.717 36.0864 22.6167 35.9796C22.5682 35.9246 22.5165 35.8697 22.4647 35.8147C22.2804 35.6044 22.0992 35.391 21.9246 35.1678C21.8663 35.0934 21.8081 35.019 21.7531 34.9446C21.7079 34.8832 21.6626 34.8249 21.6205 34.7635C21.4879 34.5791 21.3618 34.3915 21.2389 34.2007C21.158 34.0713 21.0772 33.9452 20.9995 33.8126C20.9413 33.7155 20.8863 33.6153 20.8313 33.515C20.8896 33.6153 20.9445 33.7123 20.9995 33.8093C20.8896 33.625 20.7861 33.4341 20.6858 33.2401C20.6793 33.2304 20.6761 33.2207 20.6696 33.211C20.6696 33.211 20.6534 33.1819 20.647 33.1657C20.6017 33.0784 20.5564 32.991 20.5144 32.9037C20.4658 32.8002 20.4173 32.6935 20.3688 32.59L19.9969 31.7652L19.6249 32.59C19.4341 33.0137 19.2238 33.4212 18.991 33.8126C18.9133 33.9452 18.8325 34.0713 18.7516 34.2007C18.6287 34.3915 18.5026 34.5791 18.3699 34.7635C18.3247 34.8249 18.2794 34.8832 18.2373 34.9446C18.1824 35.019 18.1241 35.0966 18.0659 35.1678C17.8913 35.391 17.7101 35.6044 17.5258 35.8147C17.4772 35.8697 17.4255 35.9246 17.3737 35.9796C17.2702 36.0864 17.1667 36.1963 17.0632 36.2998C14.7539 38.6221 11.5809 40 8.20418 40H3.0647L4.50401 38.5607H4.50725L8.21389 38.5574C12.5415 38.5574 16.2999 36.0605 18.1177 32.4282C18.1468 32.3635 18.1791 32.3021 18.2082 32.2374C18.2891 32.0692 18.3667 31.8946 18.4379 31.7199C18.454 31.6811 18.467 31.6455 18.4832 31.6067C18.5284 31.4967 18.5737 31.3835 18.6125 31.2703C18.661 31.1377 18.7063 31.0051 18.7484 30.8692C18.7742 30.7916 18.7969 30.714 18.8195 30.6364C18.8875 30.4035 18.9489 30.1674 19.0039 29.928C19.0395 29.7695 19.0718 29.6111 19.1009 29.4461C19.2141 28.8122 19.2723 28.1588 19.2723 27.4893V0.724509L19.3015 0.695399L19.3079 0.685696L19.9904 0L20.6761 0.685696L20.7117 0.74715V27.4893C20.7117 28.1556 20.7731 28.8089 20.8831 29.4461C20.9122 29.6078 20.9445 29.7663 20.9801 29.928C21.006 30.0477 21.0351 30.1674 21.0674 30.2838C21.0966 30.4035 21.1289 30.5199 21.1645 30.6331C21.1871 30.7108 21.2098 30.7884 21.2356 30.866C21.2647 30.963 21.2971 31.0568 21.3327 31.1539C21.3812 31.2962 21.4362 31.4385 21.4912 31.5776C21.5461 31.7167 21.6044 31.8557 21.6658 31.9916C21.7305 32.1371 21.8017 32.2795 21.8696 32.425C22.0119 32.7096 22.1671 32.9878 22.3321 33.2562C22.4971 33.5279 22.675 33.7899 22.8625 34.0422C22.9563 34.1716 23.0501 34.2945 23.1504 34.4174C23.1989 34.4789 23.2507 34.5403 23.3024 34.6018C23.4286 34.7538 23.5579 34.8993 23.6938 35.0449C23.7585 35.116 23.8296 35.1872 23.8976 35.2551C24.0237 35.3813 24.1531 35.5074 24.2825 35.6271C24.4151 35.75 24.5477 35.8664 24.6835 35.9796C26.6015 37.5871 29.0759 38.5542 31.7669 38.5542H35.4735L36.9128 39.9935H36.9161L36.9355 40Z" fill="black"/>
</g>
<defs>
<clipPath id="clip0_4_1469">
<rect width="40" height="40" fill="white"/>
</clipPath>
</defs>
</svg>
